<svg xmlns="http://www.w3.org/2000/svg" xmlns:xlink="http://www.w3.org/1999/xlink" width="1042" zoomAndPan="magnify" viewBox="0 0 781.5 383.999986" height="512" preserveAspectRatio="xMidYMid meet" version="1.0"><defs><g/><clipPath id="fd94456bdb"><path d="M 0 0.121094 L 781 0.121094 L 781 383.875 L 0 383.875 Z M 0 0.121094 " clip-rule="nonzero"/></clipPath><clipPath id="feec0bb96b"><rect x="0" width="329" y="0" height="180"/></clipPath></defs><g clip-path="url(#fd94456bdb)"><path fill="#ffffff" d="M 0 0.121094 L 781 0.121094 L 781 383.878906 L 0 383.878906 Z M 0 0.121094 " fill-opacity="1" fill-rule="nonzero"/><path fill="#000000" d="M 0 0.121094 L 781 0.121094 L 781 383.878906 L 0 383.878906 Z M 0 0.121094 " fill-opacity="1" fill-rule="nonzero"/></g><g transform="matrix(1, 0, 0, 1, 233, 102)"><g clip-path="url(#feec0bb96b)"><g fill="#ffffff" fill-opacity="1"><g transform="translate(0.976086, 132.49975)"><g><path d="M 33.3125 0.8125 C 24.28125 0.8125 17.046875 -0.898438 11.609375 -4.328125 C 6.179688 -7.753906 3.46875 -13 3.46875 -20.0625 C 3.46875 -23.800781 4.109375 -26.65625 5.390625 -28.625 C 6.679688 -30.59375 8.585938 -31.578125 11.109375 -31.578125 C 12.941406 -31.578125 14.429688 -31.097656 15.578125 -30.140625 C 16.734375 -29.191406 17.3125 -27.972656 17.3125 -26.484375 C 17.3125 -25.128906 17.210938 -23.941406 17.015625 -22.921875 C 17.015625 -22.648438 16.960938 -22.171875 16.859375 -21.484375 C 16.753906 -20.804688 16.703125 -20.097656 16.703125 -19.359375 C 16.703125 -16.296875 18.242188 -14.015625 21.328125 -12.515625 C 24.421875 -11.023438 28.753906 -10.28125 34.328125 -10.28125 C 40.097656 -10.28125 44.613281 -11.316406 47.875 -13.390625 C 51.132812 -15.460938 52.765625 -18.367188 52.765625 -22.109375 C 52.765625 -24.410156 52.015625 -26.394531 50.515625 -28.0625 C 49.023438 -29.726562 47.160156 -31.117188 44.921875 -32.234375 C 42.679688 -33.359375 39.523438 -34.734375 35.453125 -36.359375 C 30.222656 -38.398438 25.957031 -40.335938 22.65625 -42.171875 C 19.363281 -44.003906 16.546875 -46.5 14.203125 -49.65625 C 11.859375 -52.8125 10.6875 -56.734375 10.6875 -61.421875 C 10.6875 -66.304688 11.992188 -70.648438 14.609375 -74.453125 C 17.222656 -78.253906 20.992188 -81.207031 25.921875 -83.3125 C 30.847656 -85.425781 36.640625 -86.484375 43.296875 -86.484375 C 48.242188 -86.484375 52.789062 -85.75 56.9375 -84.28125 C 61.082031 -82.820312 64.394531 -80.597656 66.875 -77.609375 C 69.351562 -74.628906 70.59375 -70.960938 70.59375 -66.609375 C 70.59375 -62.335938 69.945312 -59.113281 68.65625 -56.9375 C 67.363281 -54.769531 65.460938 -53.6875 62.953125 -53.6875 C 61.179688 -53.6875 59.703125 -54.226562 58.515625 -55.3125 C 57.328125 -56.394531 56.734375 -57.6875 56.734375 -59.1875 C 56.734375 -60.46875 56.835938 -61.65625 57.046875 -62.75 C 57.242188 -64.78125 57.34375 -66.066406 57.34375 -66.609375 C 57.34375 -69.460938 55.953125 -71.632812 53.171875 -73.125 C 50.390625 -74.625 46.925781 -75.375 42.78125 -75.375 C 36.9375 -75.375 32.46875 -74.300781 29.375 -72.15625 C 26.289062 -70.019531 24.75 -67.019531 24.75 -63.15625 C 24.75 -60.570312 25.546875 -58.363281 27.140625 -56.53125 C 28.742188 -54.695312 30.734375 -53.164062 33.109375 -51.9375 C 35.484375 -50.71875 38.8125 -49.257812 43.09375 -47.5625 C 48.25 -45.457031 52.390625 -43.554688 55.515625 -41.859375 C 58.640625 -40.160156 61.300781 -37.851562 63.5 -34.9375 C 65.707031 -32.019531 66.8125 -28.421875 66.8125 -24.140625 C 66.8125 -16.128906 63.773438 -9.96875 57.703125 -5.65625 C 51.628906 -1.34375 43.5 0.8125 33.3125 0.8125 Z M 33.3125 0.8125 "/></g></g></g><g fill="#ffffff" fill-opacity="1"><g transform="translate(71.057279, 132.49975)"><g><path d="M 15.28125 0.515625 C 12.21875 0.515625 9.71875 -0.890625 7.78125 -3.703125 C 5.851562 -6.523438 4.890625 -10.046875 4.890625 -14.265625 C 4.890625 -19.359375 5.226562 -24.023438 5.90625 -28.265625 C 6.582031 -32.503906 7.703125 -37.003906 9.265625 -41.765625 C 9.941406 -43.796875 10.890625 -45.253906 12.109375 -46.140625 C 13.335938 -47.023438 15.273438 -47.46875 17.921875 -47.46875 C 19.421875 -47.46875 20.457031 -47.226562 21.03125 -46.75 C 21.613281 -46.28125 21.90625 -45.566406 21.90625 -44.609375 C 21.90625 -44.066406 21.53125 -42.234375 20.78125 -39.109375 C 20.101562 -36.597656 19.5625 -34.328125 19.15625 -32.296875 C 17.789062 -25.160156 17.109375 -20.40625 17.109375 -18.03125 C 17.109375 -16.601562 17.273438 -15.597656 17.609375 -15.015625 C 17.953125 -14.441406 18.5 -14.15625 19.25 -14.15625 C 20.269531 -14.15625 21.539062 -15.171875 23.0625 -17.203125 C 24.59375 -19.242188 26.222656 -22.335938 27.953125 -26.484375 C 29.691406 -30.628906 31.375 -35.722656 33 -41.765625 C 33.539062 -43.796875 34.367188 -45.253906 35.484375 -46.140625 C 36.609375 -47.023438 38.296875 -47.46875 40.546875 -47.46875 C 42.097656 -47.46875 43.179688 -47.28125 43.796875 -46.90625 C 44.410156 -46.53125 44.71875 -45.832031 44.71875 -44.8125 C 44.71875 -43.113281 43.867188 -38.460938 42.171875 -30.859375 C 40.265625 -22.171875 39.3125 -16.804688 39.3125 -14.765625 C 39.3125 -13.472656 39.582031 -12.46875 40.125 -11.75 C 40.675781 -11.039062 41.390625 -10.6875 42.265625 -10.6875 C 43.628906 -10.6875 45.242188 -11.519531 47.109375 -13.1875 C 48.972656 -14.851562 51.46875 -17.550781 54.59375 -21.28125 C 55.40625 -22.238281 56.320312 -22.71875 57.34375 -22.71875 C 58.226562 -22.71875 58.925781 -22.304688 59.4375 -21.484375 C 59.945312 -20.671875 60.203125 -19.550781 60.203125 -18.125 C 60.203125 -15.414062 59.554688 -13.3125 58.265625 -11.8125 C 55.347656 -8.21875 52.207031 -5.265625 48.84375 -2.953125 C 45.476562 -0.640625 41.65625 0.515625 37.375 0.515625 C 34.125 0.515625 31.734375 -0.738281 30.203125 -3.25 C 28.671875 -5.769531 27.90625 -9.304688 27.90625 -13.859375 C 26.75 -9.234375 25.015625 -5.679688 22.703125 -3.203125 C 20.398438 -0.722656 17.925781 0.515625 15.28125 0.515625 Z M 15.28125 0.515625 "/></g></g></g><g fill="#ffffff" fill-opacity="1"><g transform="translate(118.117629, 132.49975)"><g><path d="M 63.765625 -22.71875 C 64.648438 -22.71875 65.34375 -22.304688 65.84375 -21.484375 C 66.351562 -20.671875 66.609375 -19.550781 66.609375 -18.125 C 66.609375 -15.414062 65.96875 -13.3125 64.6875 -11.8125 C 61.625 -8.082031 58.53125 -5.09375 55.40625 -2.84375 C 52.28125 -0.601562 48.582031 0.515625 44.3125 0.515625 C 39.082031 0.515625 34.867188 -0.976562 31.671875 -3.96875 C 28.484375 -6.957031 26.890625 -10.929688 26.890625 -15.890625 C 26.890625 -18.535156 28.25 -20.4375 30.96875 -21.59375 C 33.957031 -22.882812 36.09375 -24.257812 37.375 -25.71875 C 38.664062 -27.175781 39.3125 -28.957031 39.3125 -31.0625 C 39.3125 -32.289062 39.054688 -33.207031 38.546875 -33.8125 C 38.046875 -34.425781 37.421875 -34.734375 36.671875 -34.734375 C 34.835938 -34.734375 32.816406 -33.40625 30.609375 -30.75 C 28.398438 -28.101562 26.34375 -24.691406 24.4375 -20.515625 C 22.539062 -16.347656 21.050781 -12.054688 19.96875 -7.640625 C 19.21875 -4.453125 18.347656 -2.296875 17.359375 -1.171875 C 16.378906 -0.046875 14.835938 0.515625 12.734375 0.515625 C 10.628906 0.515625 9.082031 -0.25 8.09375 -1.78125 C 7.113281 -3.3125 6.453125 -5.671875 6.109375 -8.859375 C 5.773438 -12.054688 5.609375 -16.742188 5.609375 -22.921875 C 5.609375 -33.378906 6.675781 -44.273438 8.8125 -55.609375 C 10.945312 -66.953125 14.101562 -76.476562 18.28125 -84.1875 C 22.457031 -91.894531 27.46875 -95.75 33.3125 -95.75 C 36.4375 -95.75 38.960938 -94.40625 40.890625 -91.71875 C 42.828125 -89.039062 43.796875 -85.5625 43.796875 -81.28125 C 43.796875 -74.425781 41.789062 -67.3125 37.78125 -59.9375 C 33.78125 -52.570312 27.265625 -43.96875 18.234375 -34.125 C 18.023438 -30.59375 17.921875 -26.957031 17.921875 -23.21875 C 21.179688 -31.707031 24.914062 -37.867188 29.125 -41.703125 C 33.34375 -45.546875 37.285156 -47.46875 40.953125 -47.46875 C 44.347656 -47.46875 47.078125 -46.3125 49.140625 -44 C 51.210938 -41.695312 52.25 -38.847656 52.25 -35.453125 C 52.25 -31.710938 51.296875 -28.28125 49.390625 -25.15625 C 47.492188 -22.03125 44.238281 -19.25 39.625 -16.8125 C 39.894531 -14.976562 40.722656 -13.5 42.109375 -12.375 C 43.503906 -11.25 45.1875 -10.6875 47.15625 -10.6875 C 49.257812 -10.6875 51.296875 -11.5 53.265625 -13.125 C 55.234375 -14.757812 57.816406 -17.476562 61.015625 -21.28125 C 61.828125 -22.238281 62.742188 -22.71875 63.765625 -22.71875 Z M 31.171875 -85.65625 C 29.941406 -85.65625 28.582031 -83.90625 27.09375 -80.40625 C 25.601562 -76.914062 24.160156 -72.195312 22.765625 -66.25 C 21.367188 -60.3125 20.234375 -53.847656 19.359375 -46.859375 C 23.566406 -51.816406 27.046875 -57.210938 29.796875 -63.046875 C 32.546875 -68.890625 33.921875 -74.1875 33.921875 -78.9375 C 33.921875 -81.113281 33.679688 -82.773438 33.203125 -83.921875 C 32.734375 -85.078125 32.054688 -85.65625 31.171875 -85.65625 Z M 31.171875 -85.65625 "/></g></g></g><g fill="#ffffff" fill-opacity="1"><g transform="translate(171.595295, 132.49975)"><g><path d="M 56.84375 -31.265625 C 57.71875 -31.265625 58.394531 -30.820312 58.875 -29.9375 C 59.351562 -29.0625 59.59375 -27.941406 59.59375 -26.578125 C 59.59375 -23.328125 58.609375 -21.394531 56.640625 -20.78125 C 52.554688 -19.351562 48.070312 -18.535156 43.1875 -18.328125 C 41.894531 -12.628906 39.347656 -8.0625 35.546875 -4.625 C 31.742188 -1.195312 27.429688 0.515625 22.609375 0.515625 C 18.535156 0.515625 15.054688 -0.46875 12.171875 -2.4375 C 9.285156 -4.414062 7.09375 -7.03125 5.59375 -10.28125 C 4.101562 -13.539062 3.359375 -17.070312 3.359375 -20.875 C 3.359375 -26.039062 4.34375 -30.644531 6.3125 -34.6875 C 8.28125 -38.726562 10.992188 -41.882812 14.453125 -44.15625 C 17.921875 -46.425781 21.757812 -47.5625 25.96875 -47.5625 C 31.132812 -47.5625 35.296875 -45.78125 38.453125 -42.21875 C 41.609375 -38.65625 43.457031 -34.257812 44 -29.03125 C 47.195312 -29.226562 51 -29.90625 55.40625 -31.0625 C 55.945312 -31.195312 56.425781 -31.265625 56.84375 -31.265625 Z M 23.421875 -10.28125 C 25.597656 -10.28125 27.484375 -11.160156 29.078125 -12.921875 C 30.671875 -14.691406 31.742188 -17.242188 32.296875 -20.578125 C 30.179688 -22.003906 28.5625 -23.867188 27.4375 -26.171875 C 26.320312 -28.484375 25.765625 -30.929688 25.765625 -33.515625 C 25.765625 -34.597656 25.867188 -35.679688 26.078125 -36.765625 L 25.5625 -36.765625 C 22.851562 -36.765625 20.597656 -35.457031 18.796875 -32.84375 C 16.992188 -30.226562 16.09375 -26.546875 16.09375 -21.796875 C 16.09375 -18.066406 16.820312 -15.210938 18.28125 -13.234375 C 19.738281 -11.265625 21.453125 -10.28125 23.421875 -10.28125 Z M 23.421875 -10.28125 "/></g></g></g><g fill="#ffffff" fill-opacity="1"><g transform="translate(217.535147, 132.49975)"><g><path d="M 56.84375 -31.265625 C 57.71875 -31.265625 58.394531 -30.820312 58.875 -29.9375 C 59.351562 -29.0625 59.59375 -27.941406 59.59375 -26.578125 C 59.59375 -23.328125 58.609375 -21.394531 56.640625 -20.78125 C 52.554688 -19.351562 48.070312 -18.535156 43.1875 -18.328125 C 41.894531 -12.628906 39.347656 -8.0625 35.546875 -4.625 C 31.742188 -1.195312 27.429688 0.515625 22.609375 0.515625 C 18.535156 0.515625 15.054688 -0.46875 12.171875 -2.4375 C 9.285156 -4.414062 7.09375 -7.03125 5.59375 -10.28125 C 4.101562 -13.539062 3.359375 -17.070312 3.359375 -20.875 C 3.359375 -26.039062 4.34375 -30.644531 6.3125 -34.6875 C 8.28125 -38.726562 10.992188 -41.882812 14.453125 -44.15625 C 17.921875 -46.425781 21.757812 -47.5625 25.96875 -47.5625 C 31.132812 -47.5625 35.296875 -45.78125 38.453125 -42.21875 C 41.609375 -38.65625 43.457031 -34.257812 44 -29.03125 C 47.195312 -29.226562 51 -29.90625 55.40625 -31.0625 C 55.945312 -31.195312 56.425781 -31.265625 56.84375 -31.265625 Z M 23.421875 -10.28125 C 25.597656 -10.28125 27.484375 -11.160156 29.078125 -12.921875 C 30.671875 -14.691406 31.742188 -17.242188 32.296875 -20.578125 C 30.179688 -22.003906 28.5625 -23.867188 27.4375 -26.171875 C 26.320312 -28.484375 25.765625 -30.929688 25.765625 -33.515625 C 25.765625 -34.597656 25.867188 -35.679688 26.078125 -36.765625 L 25.5625 -36.765625 C 22.851562 -36.765625 20.597656 -35.457031 18.796875 -32.84375 C 16.992188 -30.226562 16.09375 -26.546875 16.09375 -21.796875 C 16.09375 -18.066406 16.820312 -15.210938 18.28125 -13.234375 C 19.738281 -11.265625 21.453125 -10.28125 23.421875 -10.28125 Z M 23.421875 -10.28125 "/></g></g></g><g fill="#ffffff" fill-opacity="1"><g transform="translate(263.475, 132.49975)"><g><path d="M 12.125 0.515625 C 9.539062 0.515625 7.722656 -0.84375 6.671875 -3.5625 C 5.617188 -6.28125 5.09375 -10.628906 5.09375 -16.609375 C 5.09375 -25.429688 6.347656 -33.816406 8.859375 -41.765625 C 9.472656 -43.734375 10.472656 -45.175781 11.859375 -46.09375 C 13.253906 -47.007812 15.207031 -47.46875 17.71875 -47.46875 C 19.082031 -47.46875 20.035156 -47.296875 20.578125 -46.953125 C 21.117188 -46.617188 21.390625 -45.972656 21.390625 -45.015625 C 21.390625 -43.929688 20.878906 -41.488281 19.859375 -37.6875 C 19.179688 -34.96875 18.640625 -32.585938 18.234375 -30.546875 C 17.828125 -28.515625 17.488281 -26.003906 17.21875 -23.015625 C 19.457031 -28.859375 21.96875 -33.613281 24.75 -37.28125 C 27.53125 -40.945312 30.257812 -43.5625 32.9375 -45.125 C 35.625 -46.6875 38.09375 -47.46875 40.34375 -47.46875 C 44.75 -47.46875 46.953125 -45.257812 46.953125 -40.84375 C 46.953125 -38.195312 46.207031 -33.410156 44.71875 -26.484375 C 43.425781 -20.578125 42.78125 -16.671875 42.78125 -14.765625 C 42.78125 -12.046875 43.765625 -10.6875 45.734375 -10.6875 C 47.085938 -10.6875 48.695312 -11.519531 50.5625 -13.1875 C 52.4375 -14.851562 54.9375 -17.550781 58.0625 -21.28125 C 58.875 -22.238281 59.789062 -22.71875 60.8125 -22.71875 C 61.695312 -22.71875 62.390625 -22.304688 62.890625 -21.484375 C 63.398438 -20.671875 63.65625 -19.550781 63.65625 -18.125 C 63.65625 -15.414062 63.015625 -13.3125 61.734375 -11.8125 C 58.804688 -8.21875 55.660156 -5.265625 52.296875 -2.953125 C 48.941406 -0.640625 45.125 0.515625 40.84375 0.515625 C 37.382812 0.515625 34.769531 -0.484375 33 -2.484375 C 31.238281 -4.492188 30.359375 -7.398438 30.359375 -11.203125 C 30.359375 -13.109375 30.832031 -16.503906 31.78125 -21.390625 C 32.664062 -25.671875 33.109375 -28.625 33.109375 -30.25 C 33.109375 -31.332031 32.734375 -31.875 31.984375 -31.875 C 31.097656 -31.875 29.859375 -30.738281 28.265625 -28.46875 C 26.671875 -26.195312 25.039062 -23.191406 23.375 -19.453125 C 21.707031 -15.722656 20.367188 -11.785156 19.359375 -7.640625 C 18.609375 -4.453125 17.738281 -2.296875 16.75 -1.171875 C 15.769531 -0.046875 14.226562 0.515625 12.125 0.515625 Z M 12.125 0.515625 "/></g></g></g></g></g></svg>